<svg width="31" height="35" viewBox="0 0 31 35" fill="none" xmlns="http://www.w3.org/2000/svg">
<path fill-rule="evenodd" clip-rule="evenodd" d="M28.6928 25.9262C27.7566 24.7472 26.2362 23.0387 24.9347 22.8769C24.1428 22.7784 23.2328 23.4347 22.3359 24.0537C22.1609 24.1412 20.8091 24.9462 20.645 24.9944C19.7787 25.2415 17.9303 25.3137 16.8125 24.2944C15.7362 23.31 14.0344 21.4878 12.6606 19.8187C11.3481 18.0994 9.97218 16.0322 9.2678 14.7634C8.5328 13.4487 9.06218 11.7097 9.51718 10.944C9.6003 10.8062 10.6066 9.77155 10.8319 9.53092L10.8647 9.5703C11.6981 8.8703 12.5709 8.15936 12.6694 7.38936C12.8312 6.10749 11.5209 4.24155 10.5847 3.0603C9.64843 1.87686 8.19811 -0.194702 6.2228 0.0984234C5.47905 0.207798 4.83811 0.468111 4.20593 0.842173L4.18843 0.822486C4.15298 0.848881 4.11797 0.875864 4.08343 0.903423L4.02874 0.931861L4.0353 0.940611C3.67218 1.22061 2.6353 1.99499 2.51718 2.09999C1.2353 3.23967 -0.694074 5.92374 0.797801 10.7515C1.90468 14.339 4.26499 18.5522 7.48061 22.8134L7.46311 22.8287C7.62061 23.0344 7.78249 23.2203 7.94655 23.4194C8.09968 23.6228 8.25061 23.824 8.40811 24.0253L8.42999 24.01C11.8425 28.1203 15.4212 31.4059 18.6872 33.344C23.084 35.9515 26.21 34.7769 27.6537 33.8428C27.7894 33.7531 28.8219 32.9503 29.1719 32.6856L29.1806 32.6944C29.1937 32.6812 29.2025 32.6637 29.22 32.6506C29.2515 32.6268 29.2829 32.6027 29.314 32.5784L29.3009 32.5609C29.8303 32.049 30.2547 31.5022 30.5478 30.8131C31.3156 28.9997 29.6291 27.1097 28.6928 25.9262Z" fill="#673AB7"/>
</svg>
