<svg width="20" height="19" viewBox="0 0 20 19" fill="none" xmlns="http://www.w3.org/2000/svg">
<g clip-path="url(#clip0)">
<path fill-rule="evenodd" clip-rule="evenodd" d="M1.56965 9.01995C1.80612 9.01995 2.04495 9.07289 2.27083 9.18583L9.40965 12.7552L16.552 9.18583C16.7362 9.09375 16.9368 9.03887 17.1423 9.0243C17.3477 9.00973 17.554 9.03578 17.7494 9.10094C18.144 9.23255 18.4702 9.51552 18.6561 9.8876C18.8421 10.2597 18.8726 10.6904 18.741 11.085C18.6094 11.4796 18.3264 11.8058 17.9544 11.9917L10.112 15.9129C9.89417 16.022 9.65388 16.0788 9.41024 16.0788C9.1666 16.0788 8.92632 16.022 8.70848 15.9129L0.866125 11.9917C0.548454 11.8346 0.293402 11.5745 0.142593 11.2539C-0.00821495 10.9332 -0.0458717 10.5708 0.0357666 10.226C0.117405 9.88113 0.31352 9.57414 0.592102 9.3551C0.870684 9.13607 1.21528 9.01792 1.56965 9.01995Z" fill="white"/>
<path fill-rule="evenodd" clip-rule="evenodd" d="M1.56965 3.92231C1.69096 3.92209 1.81063 3.95029 1.91907 4.00466L9.40966 7.75054L16.9026 4.00466C16.9951 3.95557 17.0964 3.92548 17.2007 3.91615C17.3049 3.90683 17.41 3.91846 17.5097 3.95037C17.6094 3.98227 17.7017 4.03381 17.7812 4.10193C17.8607 4.17006 17.9258 4.2534 17.9725 4.34704C18.0193 4.44069 18.0469 4.54276 18.0536 4.64722C18.0604 4.75169 18.0462 4.85645 18.0118 4.95533C17.9774 5.05422 17.9236 5.14522 17.8535 5.223C17.7835 5.30077 17.6986 5.36374 17.6038 5.40819L9.76142 9.32937C9.6526 9.38391 9.53256 9.41232 9.41083 9.41232C9.28911 9.41232 9.16906 9.38391 9.06024 9.32937L1.21789 5.40819C1.0611 5.32819 0.935713 5.19786 0.861813 5.03811C0.787914 4.87835 0.769787 4.69841 0.810337 4.52713C0.850887 4.35584 0.947765 4.20313 1.08545 4.09346C1.22313 3.98379 1.39364 3.92352 1.56965 3.92231Z" fill="white"/>
</g>
<defs>
<clipPath id="clip0">
</clipPath>
</defs>
</svg>
