<svg width="35" height="30" viewBox="0 0 35 30" fill="none" xmlns="http://www.w3.org/2000/svg">
<path d="M34.2857 27.8571C34.2857 28.4375 34.0792 28.9397 33.6663 29.3638C33.2533 29.7879 32.7455 30 32.1429 30H2.14286C1.54018 30 1.03237 29.7879 0.61942 29.3638C0.206473 28.9397 0 28.4375 0 27.8571C0 27.4777 0.100446 27.1205 0.301339 26.7857L15 2.14286C15.1786 1.74107 15.3069 1.47321 15.385 1.33929C15.4632 1.20536 15.5971 0.998884 15.7868 0.719866C15.9766 0.440848 16.1775 0.251116 16.3895 0.15067C16.6016 0.0502232 16.8527 0 17.1429 0C17.5223 0 17.8516 0.111607 18.1306 0.334821C18.4096 0.558036 18.6217 0.797991 18.7667 1.05469C18.9118 1.31138 19.0848 1.67411 19.2857 2.14286L33.9844 26.7857C34.1853 27.1205 34.2857 27.4777 34.2857 27.8571ZM19.2857 10.7143C19.2857 10.1116 19.0792 9.60379 18.6663 9.19085C18.2533 8.7779 17.7455 8.57143 17.1429 8.57143C16.5402 8.57143 16.0324 8.7779 15.6194 9.19085C15.2065 9.60379 15 10.1116 15 10.7143V17.1429C15 17.7232 15.2121 18.2254 15.6362 18.6496C16.0603 19.0737 16.5625 19.2857 17.1429 19.2857C17.7232 19.2857 18.2254 19.0737 18.6496 18.6496C19.0737 18.2254 19.2857 17.7232 19.2857 17.1429V10.7143ZM17.1261 21.4286C16.5346 21.4286 16.0324 21.635 15.6194 22.048C15.2065 22.4609 15 22.9632 15 23.5547C15 24.1462 15.2121 24.654 15.6362 25.0781C16.0603 25.5022 16.5625 25.7143 17.1429 25.7143C17.7232 25.7143 18.2254 25.5022 18.6496 25.0781C19.0737 24.654 19.2857 24.1462 19.2857 23.5547C19.2857 22.9632 19.0737 22.4609 18.6496 22.048C18.2254 21.635 17.7176 21.4286 17.1261 21.4286Z" fill="#673AB7"/>
</svg>
