<svg width="58" height="50" viewBox="0 0 58 50" fill="none" xmlns="http://www.w3.org/2000/svg">
<path d="M57.1429 46.4286C57.1429 47.3958 56.7987 48.2329 56.1105 48.9397C55.4222 49.6466 54.5759 50 53.5714 50H3.57143C2.56696 50 1.72061 49.6466 1.03237 48.9397C0.344122 48.2329 0 47.3958 0 46.4286C0 45.7961 0.167411 45.2009 0.502232 44.6429L25 3.57143C25.2976 2.90179 25.5115 2.45536 25.6417 2.23214C25.7719 2.00893 25.9952 1.66481 26.3114 1.19978C26.6276 0.734747 26.9624 0.418527 27.3158 0.251116C27.6693 0.0837054 28.0878 0 28.5714 0C29.2039 0 29.7526 0.186012 30.2176 0.558036C30.6827 0.930059 31.0361 1.32999 31.2779 1.75781C31.5197 2.18564 31.808 2.79018 32.1429 3.57143L56.6406 44.6429C56.9754 45.2009 57.1429 45.7961 57.1429 46.4286ZM32.1429 17.8571C32.1429 16.8527 31.7987 16.0063 31.1105 15.3181C30.4222 14.6298 29.5759 14.2857 28.5714 14.2857C27.567 14.2857 26.7206 14.6298 26.0324 15.3181C25.3441 16.0063 25 16.8527 25 17.8571V28.5714C25 29.5387 25.3534 30.3757 26.0603 31.0826C26.7671 31.7894 27.6042 32.1429 28.5714 32.1429C29.5387 32.1429 30.3757 31.7894 31.0826 31.0826C31.7894 30.3757 32.1429 29.5387 32.1429 28.5714V17.8571ZM28.5435 35.7143C27.5577 35.7143 26.7206 36.0584 26.0324 36.7467C25.3441 37.4349 25 38.2719 25 39.2578C25 40.2437 25.3534 41.09 26.0603 41.7969C26.7671 42.5037 27.6042 42.8571 28.5714 42.8571C29.5387 42.8571 30.3757 42.5037 31.0826 41.7969C31.7894 41.09 32.1429 40.2437 32.1429 39.2578C32.1429 38.2719 31.7894 37.4349 31.0826 36.7467C30.3757 36.0584 29.5294 35.7143 28.5435 35.7143Z" fill="#673AB7"/>
</svg>
