<svg width="20" height="19" viewBox="0 0 20 19" fill="none" xmlns="http://www.w3.org/2000/svg">
<path d="M10 0.888062C7.34784 0.888062 4.8043 1.83627 2.92893 3.5241C1.05357 5.21193 0 7.50111 0 9.88806C0 12.275 1.05357 14.5642 2.92893 16.252C4.8043 17.9398 7.34784 18.8881 10 18.8881C12.6522 18.8881 15.1957 17.9398 17.0711 16.252C18.9464 14.5642 20 12.275 20 9.88806C20 7.50111 18.9464 5.21193 17.0711 3.5241C15.1957 1.83627 12.6522 0.888062 10 0.888062V0.888062ZM5 5.38806H15C15.1788 5.38806 15.3513 5.42294 15.5113 5.48706L10 11.2729L4.48875 5.48706C4.64929 5.42139 4.82366 5.38763 5 5.38806ZM3.75 13.2631V6.51306L3.7525 6.44219L7.4175 10.2908L3.7925 13.5533C3.76387 13.4587 3.74957 13.3611 3.75 13.2631ZM15 14.3881H5C4.89 14.3881 4.78125 14.3746 4.6775 14.3498L8.235 11.1481L10.0013 13.0021L11.7675 11.1481L15.325 14.3498C15.2199 14.3756 15.1114 14.3884 15.0025 14.3881H15ZM16.25 13.2631C16.25 13.3621 16.235 13.4599 16.2075 13.5533L12.5825 10.2908L16.2475 6.44219L16.25 6.51306V13.2631Z" fill="#673AB7"/>
</svg>
