<svg width="115" height="113" viewBox="0 0 115 113" fill="none" xmlns="http://www.w3.org/2000/svg">
<path d="M56.3578 0.0417405C29.0391 0.0647508 3.92479 22.8287 1.3474 50.059C-1.41834 73.2516 11.634 97.4927 32.9372 107.344C52.7209 117.013 78.1139 113.953 94.5223 99.0648C111.217 84.6184 118.512 59.9944 111.178 38.9867C104.205 17.5542 83.6234 1.14605 60.956 0.152947C59.4253 0.0528489 57.8913 0.0341111 56.3578 0.0417405ZM57.4769 17.7256C77.5957 17.1404 96.0404 34.8849 96.2765 55.0119C97.1465 73.4246 83.3135 91.5052 64.9643 94.5922C47.2084 98.149 27.5154 87.8873 21.3004 70.6492C14.6096 53.6027 21.4357 32.0458 37.7216 23.0989C43.6762 19.6025 50.57 17.717 57.4769 17.7256ZM43.5051 31.567L32.566 42.506L46.6426 56.5828L32.8203 70.4052L43.5857 81.1706L57.4082 67.3481L71.493 81.433L82.432 70.4939L68.3472 56.4092L82.17 42.5862L71.4046 31.8209C66.7969 36.4284 62.1893 41.036 57.5818 45.6436L43.5051 31.567Z" fill="#F98383"/>
</svg>
