<svg width="60" height="60" viewBox="0 0 60 60" fill="none" xmlns="http://www.w3.org/2000/svg">
<path d="M30 1.875C14.4637 1.875 1.875 14.4637 1.875 30C1.875 45.5363 14.4637 58.125 30 58.125C45.5363 58.125 58.125 45.5363 58.125 30C58.125 14.4637 45.5363 1.875 30 1.875ZM30 55.7812C15.7838 55.7812 4.21875 44.2163 4.21875 30C4.21875 15.7838 15.7838 4.21875 30 4.21875C44.2153 4.21875 55.7812 15.7838 55.7812 30C55.7812 31.2722 55.6847 32.5219 55.5056 33.7462C54.72 28.44 50.1712 23.6531 50.1712 23.6531C50.1712 23.6531 44.7075 29.3841 44.7075 35.2547C44.7075 41.2106 50.7009 42.7509 53.8088 39.8831C49.9228 49.2075 40.7166 55.7812 30 55.7812Z" fill="#673AB7"/>
<path d="M36.0919 37.5C38.6808 37.5 40.7794 35.4013 40.7794 32.8125C40.7794 30.2237 38.6808 28.125 36.0919 28.125C33.5031 28.125 31.4044 30.2237 31.4044 32.8125C31.4044 35.4013 33.5031 37.5 36.0919 37.5Z" fill="#673AB7"/>
<path d="M14.5294 37.5C17.1183 37.5 19.2169 35.4013 19.2169 32.8125C19.2169 30.2237 17.1183 28.125 14.5294 28.125C11.9406 28.125 9.84192 30.2237 9.84192 32.8125C9.84192 35.4013 11.9406 37.5 14.5294 37.5Z" fill="#673AB7"/>
<path d="M20.6176 20.2313C21.1248 19.7916 19.7073 18.2991 19.292 18.6619C17.793 19.9272 16.0335 20.8464 14.1387 21.3541C12.244 21.8618 10.2606 21.9454 8.32977 21.5991C7.7879 21.4931 7.30977 23.4938 7.96883 23.6203C10.1967 24.0203 12.4853 23.9239 14.6716 23.3381C16.8579 22.7523 18.8882 21.6915 20.6176 20.2313Z" fill="#673AB7"/>
<path d="M42.2936 21.4566C38.3861 22.1578 34.3671 21.0816 31.3333 18.5194C30.918 18.1547 29.5005 19.6491 30.0096 20.0887C31.739 21.5489 33.7692 22.6097 35.9556 23.1955C38.1419 23.7813 40.4305 23.8777 42.6583 23.4778C43.3174 23.3512 42.8374 21.3497 42.2936 21.4566Z" fill="#673AB7"/>
<path d="M35.6943 44.3719C30.2886 42.9197 24.3983 43.9706 19.8224 47.1975C18.6927 48.0122 20.8096 50.9728 21.9336 50.1525C24.9552 48.0263 29.7636 46.5581 34.7399 47.8725C36.0739 48.2259 37.1174 44.7713 35.6943 44.3719Z" fill="#673AB7"/>
</svg>
