<svg width="123" height="123" viewBox="0 0 123 123" fill="none" xmlns="http://www.w3.org/2000/svg">
<path d="M122.047 61.5C122.047 94.9392 94.9392 122.047 61.5 122.047C28.0608 122.047 0.953125 94.9392 0.953125 61.5C0.953125 28.0608 28.0608 0.953125 61.5 0.953125C94.9392 0.953125 122.047 28.0608 122.047 61.5ZM54.4966 93.5591L99.4185 48.6372C100.944 47.1118 100.944 44.6384 99.4185 43.113L93.8943 37.5889C92.3689 36.0632 89.8955 36.0632 88.3699 37.5889L51.7344 74.2241L34.6301 57.1199C33.1047 55.5945 30.6313 55.5945 29.1057 57.1199L23.5815 62.644C22.0562 64.1694 22.0562 66.6428 23.5815 68.1682L48.9722 93.5588C50.4978 95.0845 52.9709 95.0845 54.4966 93.5591Z" fill="#673AB7"/>
</svg>
