<svg width="31" height="31" viewBox="0 0 31 31" fill="none" xmlns="http://www.w3.org/2000/svg">
<path d="M15.5 0.187485C7.04395 0.187485 0.1875 7.04393 0.1875 15.5C0.1875 23.956 7.04395 30.8125 15.5 30.8125C23.9561 30.8125 30.8125 23.956 30.8125 15.5C30.8125 7.04393 23.9561 0.187485 15.5 0.187485ZM21.584 19.1572H19.981C19.6323 19.1572 19.3008 18.9897 19.0957 18.706L15.5 13.7363L11.9043 18.706C11.6992 18.9897 11.3711 19.1572 11.019 19.1572H9.41602C9.19385 19.1572 9.06396 18.9043 9.19385 18.7231L15.2778 10.3149C15.3872 10.1645 15.6094 10.1645 15.7188 10.3149L21.8027 18.7231C21.936 18.9043 21.8062 19.1572 21.584 19.1572Z" fill="#673AB7"/>
</svg>
